<svg width="40" height="32" viewBox="0 0 40 32" fill="none" xmlns="http://www.w3.org/2000/svg">
<path d="M20.0004 13.7146C13.7965 13.7146 5.00055 22.483 5.00055 28.0179C5.00055 30.5107 7.09506 32 10.6052 32C14.4208 32 16.9403 30.2086 20.0004 30.2086C23.0871 30.2086 25.6136 32 29.3956 32C32.9057 32 35.0002 30.5107 35.0002 28.0179C35.0002 22.483 26.2042 13.7146 20.0004 13.7146ZM8.49426 12.8139C7.68177 10.3389 5.17867 8.73608 2.90369 9.23322C0.628718 9.73035 -0.556426 12.1396 0.256066 14.6146C1.06856 17.0895 3.57166 18.6924 5.84663 18.1952C8.12161 17.6981 9.30675 15.2888 8.49426 12.8139ZM15.1129 11.3296C17.5301 10.7482 18.7395 7.76252 17.8145 4.66114C16.8895 1.55976 14.1801 -0.482346 11.763 0.0990734C9.34581 0.680493 8.13645 3.66616 9.06144 6.76754C9.98643 9.86892 12.6966 11.9117 15.1129 11.3296ZM37.0963 9.23393C34.8213 8.7368 32.319 10.3396 31.5057 12.8146C30.6932 15.2895 31.8784 17.6988 34.1534 18.1959C36.4283 18.6931 38.9307 17.0902 39.7439 14.6153C40.5564 12.1403 39.3713 9.73107 37.0963 9.23393ZM24.8878 11.3296C27.305 11.911 30.0143 9.86892 30.9393 6.76754C31.8643 3.66616 30.655 0.681207 28.2378 0.0990734C25.8206 -0.48306 23.1113 1.55976 22.1863 4.66114C21.2613 7.76252 22.4707 10.7482 24.8878 11.3296Z" fill="white"/>
</svg>
